<svg width="221" height="253" viewBox="0 0 221 253" fill="none" xmlns="http://www.w3.org/2000/svg">
<path fill-rule="evenodd" clip-rule="evenodd" d="M110.277 252.419L0 189.862L1.61587 63.0185L110.281 0.000488281L220.158 64.2306L220.562 191.478L110.277 252.419Z" fill="#AA73F5"/>
<path fill-rule="evenodd" clip-rule="evenodd" d="M110.277 252.419L110.277 126.2L1.61597 63.0184L110.277 0L110.788 0.296794L115.276 2.92013L220.158 64.2305L220.562 191.478L110.277 252.419Z" fill="#821ADC"/>
<path fill-rule="evenodd" clip-rule="evenodd" d="M147.666 105.919L110.277 126.2L5.90186 65.5015L110.277 3.8623L215.311 65.2615L171.5 91.198L185.87 110.125L147.666 105.919Z" fill="white"/>
<path fill-rule="evenodd" clip-rule="evenodd" d="M110.642 53.9141C113.832 53.9141 116.418 56.3726 116.418 59.4054C116.418 62.4381 113.832 64.8962 110.642 64.8962C107.451 64.8962 104.865 62.4381 104.865 59.4054C104.865 56.3726 107.451 53.9141 110.642 53.9141Z" fill="#821ADC"/>
<path fill-rule="evenodd" clip-rule="evenodd" d="M94.7796 63.8311C97.9703 63.8311 100.557 66.2897 100.557 69.322C100.557 72.3546 97.9703 74.8133 94.7796 74.8133C91.589 74.8133 89.0027 72.3546 89.0027 69.322C89.0027 66.2897 91.589 63.8311 94.7796 63.8311Z" fill="#821ADC"/>
<path fill-rule="evenodd" clip-rule="evenodd" d="M127.225 45.1499C130.416 45.1499 133.002 47.6086 133.002 50.6412C133.002 53.6735 130.416 56.1322 127.225 56.1322C124.035 56.1322 121.448 53.6735 121.448 50.6412C121.448 47.6086 124.035 45.1499 127.225 45.1499Z" fill="#821ADC"/>
</svg>
